<?xml version="1.0" encoding="utf-8"?>
<!-- Generator: Adobe Illustrator 15.1.0, SVG Export Plug-In . SVG Version: 6.00 Build 0)  -->
<!DOCTYPE svg PUBLIC "-//W3C//DTD SVG 1.1//EN" "http://www.w3.org/Graphics/SVG/1.1/DTD/svg11.dtd">
<svg version="1.1" id="Layer_1" xmlns="http://www.w3.org/2000/svg" xmlns:xlink="http://www.w3.org/1999/xlink" x="0px" y="0px"
	 width="237px" height="220px" viewBox="0 0 237 220" enable-background="new 0 0 237 220" xml:space="preserve">
<g>
	<path fill="#030104" d="M48.284,73.723c-0.008,0.003-0.017,0.006-0.025,0.01c2.79-0.748,5.643-1.461,8.561-2.133
		C53.911,72.268,51.067,72.979,48.284,73.723z"/>
	<path fill="#FFFFFF" d="M151.59,186.757c0.009-0.058,0.026-0.109,0.048-0.154c0.007-0.014,0.015-0.025,0.021-0.038
		c0.02-0.034,0.042-0.066,0.066-0.095c0.008-0.008,0.014-0.018,0.021-0.025c0.112-0.117,0.264-0.201,0.392-0.304
		c0.033-0.025,0.065-0.053,0.093-0.084c0.007-0.006,0.012-0.013,0.017-0.019c0.005-0.003,0.007-0.009,0.01-0.012
		c0.03-0.035,0.058-0.073,0.08-0.117c0.022-0.05,0.042-0.104,0.052-0.165c-1.939,1.786-3.737,3.709-5.592,5.577
		c19.843-24.98,33.654-59.219,30.621-105.988c-2.026-0.773-4.136-1.495-6.316-2.167c-20.751-6.395-48.055-8.255-73.149-6.014
		c-14.827,1.325-28.883,4.079-40.357,8.181c-1.872,31.824,3.611,58.74,14.112,79.617c5.343,10.296,11.498,19.817,18.639,28.4
		c-1.488-1.034-2.505-2.517-3.994-3.55c7.526,7.532,14.082,14.522,22.633,21.299c1.74,1.379,6.66,6.183,8.787,6.085
		c0.69-0.031,3.876-2.36,4.793-3.043c0.236-0.177,0.467-0.357,0.703-0.535C134.222,205.319,142.328,195.919,151.59,186.757z
		 M118.573,209.071c-1.536,0.074-3.456-2.236-4.527-3.043c-30.6-23.035-51.282-60.612-47.929-115.118
		c17.78-6.405,42.565-9.135,65.633-7.663c4.16,0.265,8.263,0.667,12.26,1.208c9.7,1.314,18.774,3.45,26.485,6.454
		c2.837,42.379-9.147,74.445-29.023,97.876c-4.368,5.149-10.542,10.652-16.776,15.72
		C123.169,205.749,119.868,209.009,118.573,209.071z"/>
	<path fill="#212323" d="M152.407,187.598c-0.025,0.029-0.048,0.062-0.068,0.098c-0.007,0.013-0.015,0.025-0.021,0.039
		c-0.022,0.047-0.041,0.1-0.05,0.159c0.223-0.237,0.438-0.48,0.658-0.72c-0.029,0.032-0.061,0.06-0.095,0.086
		c-0.132,0.105-0.287,0.191-0.402,0.312C152.421,187.58,152.415,187.59,152.407,187.598z"/>
	<path fill="#70A83B" d="M189.623,81.723C189.535,79.508,193,56.5,167,67.5c-21.043-5.05-21.973-8-48.5-8
		c-26.463,0-99-29-73.299,15.485c-0.09,1.24-0.163,2.469-0.229,3.693c-2.77,51.832,15.908,88.575,42.124,113.387
		c-6.686-7.887-12.323-16.774-16.978-26.598c-10.799-21.47-16.438-49.149-14.513-81.877c11.8-4.218,26.254-7.05,41.502-8.413
		c25.806-2.305,53.885-0.391,75.225,6.185c2.243,0.691,4.412,1.433,6.496,2.228c3.119,48.097-11.085,83.307-31.49,108.996
		c1.907-1.921,3.756-3.898,5.75-5.735C175.368,161.823,191.502,128.472,189.623,81.723z"/>
	<path fill="#70A83B" d="M89.287,194.674c-7.344-8.826-13.673-18.618-19.168-29.206c4.654,9.823,10.292,18.711,16.978,26.598
		C60.88,167.253,42.202,130.51,44.972,78.678c0.066-1.224,0.139-2.453,0.229-3.693C65.896,69.169,98.037,65,124.5,65
		c26.527,0,43.691,4.936,64.734,9.985c0.172,2.276,0.301,4.522,0.389,6.738c1.879,46.749-14.255,80.1-36.534,105.128
		c-0.01,0.063-0.029,0.119-0.053,0.17c-0.023,0.045-0.052,0.084-0.082,0.12c-0.004,0.004-0.006,0.009-0.009,0.012
		c0.092-0.1,0.181-0.201,0.272-0.302c22.804-24.861,38.281-57.855,36.89-105.096c-0.061-2.04-0.156-4.109-0.28-6.202
		c-0.002-0.032-0.002-0.063-0.004-0.093c15.042-16.238,30.056-32.504,45.002-48.833c-6.32-8.77-13.11-17.093-21.124-24.251
		C195.103,16.779,176.105,30.64,157.27,45.09c-2.611,2.005-4.824,4.684-8.103,5.787c-2.829-4.401-4.915-10.045-7.812-16.259
		c-2.369-5.08-7.176-11.375-6.367-17.361c0.814-6.032,7.957-8.38,16.495-7.165c-0.643-9.196-15.22-7.528-23.729-9.369
		c-2.315,0-4.631,0-6.944,0c-11.506,0.054-16.194,10.243-19.968,18.187c-5.021,10.568-9.532,23.041-14.18,32.242
		c-5.806-3.511-11.155-7.674-16.206-12.125c-5.033-4.435-10.923-7.786-16.206-11.849c-10.646-8.19-20.778-16.813-31.832-24.527
		C13.92,9.442,7.371,18.085,1.002,26.903c4.32,5.713,9.273,11.01,14.18,16.259c9.794,10.477,19.643,21.001,29.508,31.548
		c1.184-0.336,2.385-0.664,3.594-0.987c2.783-0.744,5.626-1.455,8.536-2.123c-2.917,0.672-5.771,1.385-8.561,2.133
		c-1.161,0.312-2.313,0.626-3.451,0.949c-0.051,0.015-0.104,0.028-0.156,0.043c-0.09,1.447-0.162,2.879-0.222,4.3
		c-2.167,51.416,15.263,86.187,40.749,111.999C86.71,192.086,87.756,193.61,89.287,194.674z"/>
</g>
<g>
	<path fill-rule="evenodd" clip-rule="evenodd" fill="#FFFFFF" d="M126.242,146.183c8.465-8.229,24.879-10.509,40.72-12.833
		c1.219-2.1,1.555-4.931,2.342-7.39c-19.99-0.534-41.179,1.307-53.828,8.167c7.647-8.035,21.688-10.759,35.105-14
		c1.216-2.62,1.971-5.622,2.34-8.945c-14.05-1.562-25.308,2.566-34.636,6.223c4.952-4.83,13.439-6.723,21.53-8.945
		c0.146-2.194-0.829-3.459-0.468-5.833c-4.678-1.95-10.679,0.362-16.382,0c-1.836-1.119,4.335-2.018,5.148-3.5
		c0-1.686,0-3.371,0-5.057c-3.099-2.381-7.165-0.121-11.234,0c-1.167-1.452,2.407-1.728,2.341-3.499
		c-2.224-3.856-4.501-7.667-6.084-12.057c-0.624,0-1.248,0-1.874,0c-1.509,4.232-2.723,8.514,0,12.444
		c-3.067,0.951-5.953,2.055-7.957,3.89c-0.271,1.849-0.676,3.585-0.467,5.833c3.19,0.188,5.083-0.703,7.956-0.777
		c-4.985,2.987-10.315,5.688-14.977,8.945c0,2.074,0,4.148,0,6.222c5.019-1.016,8.951-2.934,14.977-3.111
		c-6.374,4.167-13.888,7.387-19.19,12.445c0,2.593,0,5.186,0,7.778c7.173-1.56,12.48-4.667,19.19-6.611
		c-8.719,6.237-18.447,11.636-27.146,17.889c1.039,2.897,2.17,5.715,4.213,7.778c9.228-3.61,18.359-7.301,28.551-10.112
		c-11.976,8.589-27.67,14.087-37.913,24.114c0,1.426,0,2.852,0,4.276c7.062,0.968,17.792-3.238,26.679-4.666
		c8.907-1.433,17.226-2.259,27.148-2.333c0.95-2.191,1.144-5.016,1.872-7.391c5.651-0.478,10.283,1.746,14.51,0.779
		c4.488-1.027,4.976-5.939,8.424-7.779c3.597-0.046,7.605-0.147,11.83-0.254c1.069-2.561,0.984-5.354,1.572-8.176
		C154.316,140.938,138.881,143.438,126.242,146.183z"/>
</g>
</svg>
