<?xml version="1.0" encoding="utf-8"?>
<!-- Generator: Adobe Illustrator 15.1.0, SVG Export Plug-In . SVG Version: 6.00 Build 0)  -->
<!DOCTYPE svg PUBLIC "-//W3C//DTD SVG 1.1//EN" "http://www.w3.org/Graphics/SVG/1.1/DTD/svg11.dtd">
<svg version="1.1" id="Layer_1" xmlns="http://www.w3.org/2000/svg" xmlns:xlink="http://www.w3.org/1999/xlink" x="0px" y="0px"
	 width="205px" height="100px" viewBox="0 0 205 100" enable-background="new 0 0 205 100" xml:space="preserve">
<g>
	<text transform="matrix(0.922 0 0 0.5 155.1074 23.2812)" fill="#FFFFFF" font-family="'MyriadPro-Cond'" font-size="7.6469">SERVICE</text>
	<text transform="matrix(0.922 0 0 0.5 155.1074 23.2812)" fill="#FFFFFF" font-family="'MyriadPro-Cond'" font-size="7.6469">SERVICE</text>
</g>
<text transform="matrix(1.0173 0 0 0.95 105.0488 18.2021)" fill="#030104" font-family="'MyriadPro-Bold'" font-size="13.2972" letter-spacing="0.983">E</text>
<text transform="matrix(1.0277 0 0 0.78 113.625 18.2021)" fill="#030104" font-family="'MyriadPro-Regular'" font-size="13.2972">VER</text>
<text transform="matrix(1.0173 0 0 0.95 136.9658 18.2021)" fill="#FFFFFF" font-family="'MyriadPro-Bold'" font-size="13.2972" letter-spacing="0.983">G</text>
<text transform="matrix(1.0173 0 0 0.78 147.5439 18.2021)" fill="#FFFFFF" font-family="'MyriadPro-Regular'" font-size="13.2972">REEN</text>
<text transform="matrix(1.1983 0 0 0.95 105.0488 38.5967)" fill="#FFFFFF" font-family="'CopperplateGothic-Light'" font-size="15.2847">SECURITY</text>
<text transform="matrix(1.1983 0 0 0.95 174.75 48.8252)" fill="#FFFFFF" font-family="'Calibri'" font-size="9.8195">Guard</text>
<g>
	<path fill="#FFFFFF" d="M62.861,86.299c9.122-10.986,14.622-26.023,13.32-45.896c-3.539-1.409-7.703-2.411-12.155-3.027
		c-1.834-0.254-3.717-0.442-5.625-0.567c-10.587-0.689-21.961,0.59-30.122,3.594c-1.539,25.56,7.954,43.18,21.997,53.981
		c0.492,0.378,1.373,1.461,2.077,1.428c0.595-0.03,2.109-1.558,2.811-2.141C58.023,91.294,60.856,88.714,62.861,86.299z"/>
	<path fill="#030104" d="M21.1,33.287c-0.003,0.002-0.007,0.003-0.011,0.004c1.245-0.34,2.518-0.666,3.82-0.972
		C23.611,32.624,22.342,32.948,21.1,33.287z"/>
	<path fill="#030104" d="M84.175,36.935c-0.04-1.01-0.097-2.034-0.173-3.072c-9.391-2.302-20.3-4.519-32.139-4.519
		c-11.81,0-22.903,1.866-32.139,4.519c-0.04,0.566-0.073,1.126-0.102,1.684c-1.236,23.635,7.099,40.39,18.798,51.703
		c-2.984-3.597-5.499-7.648-7.576-12.129c-4.819-9.789-7.336-22.411-6.477-37.334c5.266-1.923,11.716-3.215,18.521-3.836
		c11.517-1.051,24.047-0.178,33.57,2.82c1.001,0.315,1.969,0.654,2.899,1.016c1.392,21.931-4.946,37.987-14.053,49.702
		c0.852-0.876,1.676-1.778,2.566-2.615C77.813,73.46,85.013,58.252,84.175,36.935z"/>
	<path fill="#4C4C4C" d="M67.504,85.347c0.004-0.026,0.012-0.05,0.022-0.072c0.003-0.006,0.006-0.012,0.01-0.018
		c0.009-0.016,0.019-0.03,0.03-0.044c0.003-0.004,0.006-0.008,0.01-0.013c0.051-0.054,0.12-0.094,0.179-0.142
		c0.015-0.013,0.03-0.025,0.043-0.039c0.002-0.003,0.005-0.006,0.007-0.009c0.002-0.001,0.003-0.004,0.004-0.005
		c0.014-0.018,0.027-0.036,0.037-0.056c0.011-0.022,0.02-0.049,0.024-0.077c-0.89,0.837-1.715,1.739-2.566,2.615
		c9.107-11.715,15.445-27.771,14.053-49.702c-0.93-0.362-1.898-0.701-2.899-1.016c-9.523-2.998-22.054-3.871-33.57-2.82
		c-6.805,0.621-13.255,1.913-18.521,3.836c-0.859,14.923,1.657,27.545,6.477,37.334c2.452,4.829,5.276,9.295,8.554,13.318
		c-0.683-0.485-1.15-1.18-1.833-1.665c3.454,3.531,6.462,6.81,10.387,9.988c0.799,0.646,3.057,2.9,4.033,2.854
		c0.317-0.015,1.779-1.106,2.199-1.428c0.109-0.083,0.215-0.167,0.323-0.25C59.534,94.053,63.254,89.644,67.504,85.347z
		 M52.352,95.812c-0.704,0.033-1.585-1.05-2.077-1.428C36.231,83.582,26.739,65.962,28.278,40.402
		c8.161-3.004,19.535-4.283,30.122-3.594c1.909,0.125,3.792,0.312,5.625,0.567c4.452,0.616,8.616,1.618,12.155,3.027
		c1.302,19.873-4.198,34.91-13.32,45.896c-2.005,2.415-4.837,4.995-7.698,7.372C54.461,94.254,52.946,95.781,52.352,95.812z"/>
	<path fill="#212323" d="M67.566,85.213c-0.011,0.014-0.021,0.028-0.03,0.044c-0.003,0.006-0.007,0.012-0.01,0.018
		c-0.01,0.022-0.018,0.046-0.022,0.072c0.099-0.107,0.195-0.219,0.294-0.327c-0.013,0.014-0.027,0.026-0.042,0.039
		c-0.06,0.048-0.128,0.088-0.179,0.142C67.573,85.205,67.57,85.209,67.566,85.213z"/>
	<path fill="#030104" d="M39.398,88.439c-3.278-4.023-6.102-8.489-8.554-13.318c2.077,4.48,4.592,8.532,7.576,12.129
		C26.721,75.937,18.386,59.182,19.622,35.547c0.029-0.558,0.062-1.118,0.102-1.684c9.235-2.652,20.329-4.519,32.139-4.519
		c11.838,0,22.748,2.216,32.139,4.519c0.076,1.038,0.134,2.062,0.173,3.072c0.838,21.317-6.361,36.525-16.304,47.938
		c-0.004,0.028-0.013,0.055-0.024,0.077c-0.01,0.02-0.023,0.038-0.037,0.056c-0.001,0.001-0.002,0.003-0.004,0.005
		c0.041-0.046,0.081-0.093,0.122-0.138C78.104,73.536,85.012,58.49,84.391,36.95c-0.027-0.93-0.07-1.874-0.125-2.828
		c-0.001-0.015-0.001-0.029-0.002-0.042c6.713-7.404,13.414-14.822,20.084-22.268c-2.82-4-5.851-7.795-9.428-11.058
		c-8.3,6.567-16.778,12.888-25.183,19.477c-1.166,0.914-2.153,2.135-3.616,2.639c-1.263-2.006-2.194-4.58-3.487-7.414
		c-1.057-2.317-3.202-5.187-2.841-7.917c0.363-2.751,3.551-3.821,7.361-3.267C66.867,0.079,60.362,0.839,56.565,0
		c-1.033,0-2.066,0-3.1,0c-5.134,0.025-7.227,4.671-8.911,8.293c-2.241,4.819-4.253,10.507-6.328,14.703
		c-2.591-1.601-4.978-3.5-7.232-5.529c-2.246-2.022-4.875-3.551-7.232-5.403c-4.75-3.735-9.273-7.667-14.206-11.184
		C5.765,3.976,2.842,7.917,0,11.938c1.928,2.605,4.139,5.021,6.328,7.414c4.371,4.778,8.766,9.577,13.168,14.386
		c0.528-0.154,1.064-0.303,1.604-0.451c1.242-0.339,2.511-0.663,3.809-0.968c-1.302,0.307-2.575,0.632-3.82,0.972
		c-0.518,0.142-1.033,0.286-1.54,0.433c-0.023,0.007-0.047,0.013-0.07,0.02c-0.041,0.66-0.072,1.313-0.099,1.96
		c-0.967,23.444,6.811,39.302,18.185,51.07C38.249,87.26,38.715,87.954,39.398,88.439z"/>
</g>
<g>
	<path fill-rule="evenodd" clip-rule="evenodd" fill="#4C4C4C" d="M55.714,67.024c3.577-3.69,10.515-4.713,17.208-5.755
		c0.515-0.941,0.658-2.212,0.99-3.313c-8.448-0.24-17.402,0.586-22.749,3.662c3.232-3.604,9.166-4.825,14.836-6.279
		c0.514-1.175,0.833-2.521,0.989-4.012c-5.938-0.701-10.695,1.151-14.638,2.791c2.093-2.166,5.68-3.016,9.099-4.012
		c0.061-0.984-0.351-1.551-0.198-2.616c-1.977-0.875-4.513,0.163-6.923,0c-0.775-0.501,1.832-0.905,2.176-1.57
		c0-0.755,0-1.511,0-2.268c-1.31-1.068-3.028-0.054-4.748,0c-0.494-0.651,1.017-0.775,0.989-1.569
		c-0.939-1.729-1.902-3.438-2.571-5.407c-0.264,0-0.527,0-0.792,0c-0.638,1.898-1.15,3.819,0,5.582
		c-1.296,0.426-2.516,0.92-3.363,1.744c-0.114,0.829-0.285,1.608-0.197,2.616c1.348,0.084,2.148-0.315,3.362-0.349
		c-2.106,1.34-4.359,2.551-6.329,4.012c0,0.93,0,1.86,0,2.79c2.121-0.456,3.783-1.314,6.329-1.395
		c-2.694,1.868-5.869,3.312-8.11,5.581c0,1.163,0,2.325,0,3.488c3.031-0.699,5.274-2.093,8.11-2.965
		C45.501,60.579,41.39,63,37.713,65.805c0.438,1.298,0.917,2.562,1.78,3.487c3.9-1.619,7.759-3.273,12.066-4.534
		c-5.062,3.852-11.694,6.317-16.023,10.814c0,0.639,0,1.278,0,1.919c2.985,0.434,7.519-1.453,11.275-2.094
		c3.765-0.643,7.28-1.014,11.473-1.046c0.402-0.983,0.483-2.249,0.792-3.315c2.388-0.215,4.346,0.783,6.132,0.35
		c1.897-0.46,2.103-2.663,3.561-3.489c1.519-0.02,3.213-0.066,5-0.113c0.452-1.147,0.416-2.401,0.664-3.666
		C67.579,64.674,61.055,65.795,55.714,67.024z"/>
</g>
</svg>
